
<svg version="1.1" id="Layer_1" xmlns="http://www.w3.org/2000/svg" xmlns:xlink="http://www.w3.org/1999/xlink" x="0px" y="0px"
	 viewBox="0 0 142.114 42.605" enable-background="new 0 0 142.114 42.605"
	 xml:space="preserve">
<g>
	<path fill="#1E1E1E" d="M9.794,20.943c-0.546,0.265-1.755,0.568-3.301,0.568c-4.04,0-6.493-2.53-6.493-6.418
		c0-4.189,2.926-6.719,6.814-6.719c1.525,0,2.604,0.32,3.075,0.566l-0.491,1.85c-0.604-0.264-1.453-0.492-2.49-0.492
		c-2.586,0-4.455,1.625-4.455,4.682c0,2.812,1.623,4.587,4.436,4.587c0.926,0,1.906-0.19,2.53-0.454L9.794,20.943z"/>
	<path fill="#1E1E1E" d="M15.988,8.582v12.72h-2.324V8.582H15.988z"/>
	<path fill="#1E1E1E" d="M23.084,17.699l-1.095,3.603h-2.398l4.078-12.72h2.963l4.133,12.72h-2.512l-1.15-3.603H23.084z
		 M26.727,15.943l-1.001-3.133c-0.247-0.773-0.452-1.642-0.64-2.379h-0.04c-0.188,0.737-0.397,1.623-0.604,2.379l-0.983,3.133
		H26.727z"/>
	<path fill="#1E1E1E" d="M34.428,8.77c0.887-0.168,2.168-0.282,3.508-0.282c1.832,0,3.059,0.303,3.928,1.022
		c0.697,0.583,1.094,1.47,1.094,2.564c0,1.645-1.112,2.755-2.32,3.172v0.056c0.922,0.339,1.471,1.228,1.771,2.454
		c0.418,1.586,0.756,3.057,1.001,3.546h-2.377c-0.19-0.378-0.511-1.413-0.85-2.999c-0.376-1.66-0.963-2.189-2.284-2.227h-1.171
		v5.226h-2.3V8.77z M36.728,14.376h1.38c1.566,0,2.529-0.83,2.529-2.095c0-1.377-0.963-2.038-2.474-2.038
		c-0.735,0-1.207,0.056-1.436,0.112V14.376z"/>
</g>
<g>
	<g>
		<path fill="#1E1E1E" d="M2.399,29.537c-0.126,0.063-0.388,0.128-0.718,0.128c-0.765,0-1.336-0.483-1.336-1.376
			c0-0.855,0.575-1.426,1.418-1.426c0.333,0,0.55,0.07,0.645,0.119l-0.09,0.285C2.19,27.204,2,27.154,1.773,27.154
			c-0.637,0-1.061,0.41-1.061,1.121c0,0.67,0.384,1.092,1.042,1.092c0.218,0,0.436-0.045,0.576-0.113L2.399,29.537z"/>
		<path fill="#1E1E1E" d="M4.378,28.349H3.326v0.979h1.177v0.295h-1.53v-2.718h1.469v0.294H3.326v0.859h1.052V28.349z"/>
		<path fill="#1E1E1E" d="M5.095,29.623v-2.718h0.387l0.865,1.375c0.196,0.318,0.358,0.603,0.483,0.882l0.012-0.004
			c-0.033-0.361-0.04-0.693-0.04-1.115v-1.138h0.331v2.718H6.775l-0.859-1.381c-0.189-0.301-0.371-0.609-0.504-0.905L5.398,27.34
			c0.021,0.344,0.026,0.67,0.026,1.123v1.16H5.095z"/>
		<path fill="#1E1E1E" d="M8.395,27.204H7.569v-0.299h2.009v0.299H8.749v2.419H8.395V27.204z"/>
		<path fill="#1E1E1E" d="M10.016,26.943c0.178-0.033,0.434-0.057,0.671-0.057c0.376,0,0.622,0.072,0.788,0.221
			c0.133,0.121,0.213,0.307,0.213,0.521c0,0.353-0.227,0.59-0.508,0.688v0.01c0.205,0.073,0.33,0.267,0.395,0.551
			c0.088,0.376,0.153,0.639,0.209,0.745h-0.361c-0.046-0.081-0.104-0.311-0.18-0.649c-0.078-0.375-0.228-0.517-0.546-0.528h-0.33
			v1.178h-0.351V26.943z M10.366,28.18h0.356c0.377,0,0.613-0.207,0.613-0.517c0-0.351-0.253-0.504-0.625-0.504
			c-0.17,0-0.285,0.013-0.345,0.028V28.18z"/>
		<path fill="#1E1E1E" d="M14.648,28.236c0,0.932-0.566,1.429-1.262,1.429c-0.719,0-1.22-0.559-1.22-1.382
			c0-0.861,0.532-1.425,1.258-1.425C14.17,26.858,14.648,27.426,14.648,28.236z M12.538,28.275c0,0.585,0.314,1.105,0.87,1.105
			c0.557,0,0.871-0.512,0.871-1.129c0-0.543-0.283-1.107-0.866-1.107C12.828,27.145,12.538,27.684,12.538,28.275z"/>
		<path fill="#1E1E1E" d="M16.58,26.905v2.718h-0.357v-2.718H16.58z"/>
		<path fill="#1E1E1E" d="M17.323,29.623v-2.718h0.388l0.865,1.375c0.197,0.318,0.358,0.603,0.484,0.882l0.012-0.004
			c-0.031-0.361-0.039-0.693-0.039-1.115v-1.138h0.33v2.718h-0.355l-0.862-1.381c-0.189-0.301-0.368-0.609-0.505-0.905l-0.014,0.003
			c0.023,0.344,0.027,0.67,0.027,1.123v1.16H17.323z"/>
		<path fill="#1E1E1E" d="M20.625,27.204h-0.826v-0.299h2.012v0.299h-0.832v2.419h-0.354V27.204z"/>
		<path fill="#1E1E1E" d="M23.646,28.349h-1.051v0.979h1.177v0.295h-1.53v-2.718h1.47v0.294h-1.116v0.859h1.051V28.349z"/>
		<path fill="#1E1E1E" d="M26.433,29.499c-0.157,0.062-0.47,0.153-0.837,0.153c-0.411,0-0.75-0.107-1.016-0.362
			c-0.234-0.227-0.378-0.585-0.378-1.01c0-0.811,0.56-1.403,1.472-1.403c0.312,0,0.562,0.07,0.679,0.124l-0.088,0.29
			c-0.146-0.068-0.327-0.119-0.602-0.119c-0.661,0-1.093,0.41-1.093,1.094c0,0.688,0.412,1.094,1.049,1.094
			c0.23,0,0.389-0.031,0.467-0.072v-0.81h-0.545v-0.284h0.892V29.499z"/>
		<path fill="#1E1E1E" d="M27.1,26.943c0.178-0.033,0.436-0.057,0.671-0.057c0.376,0,0.622,0.072,0.788,0.221
			c0.132,0.121,0.212,0.307,0.212,0.521c0,0.353-0.226,0.59-0.505,0.688v0.01c0.202,0.073,0.328,0.267,0.392,0.551
			c0.091,0.376,0.153,0.639,0.21,0.745h-0.361c-0.045-0.081-0.104-0.311-0.178-0.649c-0.08-0.375-0.229-0.517-0.547-0.528h-0.332
			v1.178H27.1V26.943z M27.449,28.18h0.359c0.376,0,0.613-0.207,0.613-0.517c0-0.351-0.254-0.504-0.625-0.504
			c-0.168,0-0.287,0.013-0.348,0.028V28.18z"/>
		<path fill="#1E1E1E" d="M29.859,28.768l-0.281,0.855h-0.362l0.927-2.718h0.418l0.928,2.718h-0.376l-0.29-0.855H29.859z
			 M30.754,28.494l-0.27-0.781c-0.061-0.178-0.101-0.34-0.142-0.498h-0.007c-0.041,0.158-0.082,0.327-0.139,0.494l-0.266,0.785
			H30.754z"/>
		<path fill="#1E1E1E" d="M32.019,26.947c0.218-0.037,0.47-0.061,0.747-0.061c0.504,0,0.863,0.121,1.101,0.338
			c0.245,0.221,0.386,0.535,0.386,0.975c0,0.443-0.141,0.807-0.389,1.055c-0.259,0.256-0.678,0.392-1.205,0.392
			c-0.254,0-0.461-0.013-0.64-0.032V26.947z M32.371,29.349c0.091,0.011,0.218,0.015,0.354,0.015c0.755,0,1.158-0.418,1.158-1.152
			c0.004-0.639-0.359-1.045-1.101-1.045c-0.181,0-0.319,0.016-0.411,0.033V29.349z"/>
		<path fill="#1E1E1E" d="M37.158,28.236c0,0.932-0.566,1.429-1.261,1.429c-0.722,0-1.221-0.559-1.221-1.382
			c0-0.861,0.532-1.425,1.259-1.425C36.68,26.858,37.158,27.426,37.158,28.236z M35.049,28.275c0,0.585,0.314,1.105,0.87,1.105
			c0.558,0,0.87-0.512,0.87-1.129c0-0.543-0.281-1.107-0.866-1.107C35.34,27.145,35.049,27.684,35.049,28.275z"/>
		<path fill="#1E1E1E" d="M38.736,26.947c0.214-0.037,0.469-0.061,0.746-0.061c0.503,0,0.863,0.121,1.101,0.338
			c0.245,0.221,0.387,0.535,0.387,0.975c0,0.443-0.142,0.807-0.393,1.055c-0.257,0.256-0.676,0.392-1.202,0.392
			c-0.256,0-0.463-0.013-0.639-0.032V26.947z M39.086,29.349c0.09,0.011,0.219,0.015,0.355,0.015c0.753,0,1.156-0.418,1.156-1.152
			c0.006-0.639-0.357-1.045-1.098-1.045c-0.184,0-0.321,0.016-0.414,0.033V29.349z"/>
		<path fill="#1E1E1E" d="M42.957,28.349h-1.05v0.979h1.175v0.295H41.55v-2.718h1.47v0.294h-1.112v0.859h1.05V28.349z"/>
		<path fill="#1E1E1E" d="M0.818,33.606l-0.281,0.854H0.175l0.927-2.718H1.52l0.928,2.718H2.072l-0.291-0.854H0.818z M1.713,33.331
			l-0.27-0.78c-0.061-0.18-0.102-0.34-0.141-0.496H1.295c-0.042,0.156-0.08,0.325-0.136,0.492l-0.267,0.784H1.713z"/>
		<path fill="#1E1E1E" d="M2.846,31.776c0.17-0.03,0.393-0.053,0.674-0.053c0.347,0,0.602,0.079,0.764,0.225
			c0.143,0.129,0.234,0.327,0.234,0.567c0,0.247-0.07,0.44-0.208,0.58c-0.188,0.201-0.487,0.3-0.831,0.3
			c-0.104,0-0.2-0.004-0.281-0.024v1.09H2.846V31.776z M3.197,33.084c0.076,0.022,0.175,0.031,0.291,0.031
			c0.423,0,0.68-0.21,0.68-0.58c0-0.361-0.257-0.531-0.641-0.531c-0.152,0-0.268,0.011-0.33,0.026V33.084z"/>
		<path fill="#1E1E1E" d="M4.99,31.779c0.18-0.033,0.435-0.056,0.675-0.056c0.374,0,0.619,0.073,0.784,0.221
			c0.135,0.122,0.214,0.308,0.214,0.521c0,0.354-0.224,0.594-0.507,0.689v0.014c0.204,0.07,0.33,0.264,0.395,0.548
			c0.09,0.376,0.154,0.641,0.209,0.745h-0.36c-0.046-0.083-0.106-0.311-0.179-0.65c-0.08-0.373-0.229-0.514-0.55-0.526H5.342v1.177
			H4.99V31.779z M5.342,33.017h0.359c0.374,0,0.613-0.204,0.613-0.515c0-0.351-0.256-0.504-0.625-0.504
			c-0.171,0-0.287,0.012-0.348,0.028V33.017z"/>
		<path fill="#1E1E1E" d="M8.562,33.188H7.512v0.979h1.176v0.295H7.156v-2.718h1.471v0.294H7.512v0.859h1.051V33.188z"/>
		<path fill="#1E1E1E" d="M9.145,34.461v-2.718h0.385l0.868,1.376c0.196,0.318,0.358,0.604,0.483,0.88l0.012-0.003
			c-0.029-0.362-0.04-0.693-0.04-1.117v-1.136h0.33v2.718h-0.356L9.967,33.08c-0.189-0.301-0.371-0.611-0.506-0.906l-0.012,0.004
			c0.021,0.344,0.026,0.67,0.026,1.121v1.162H9.145z"/>
		<path fill="#1E1E1E" d="M11.797,31.785c0.213-0.039,0.467-0.062,0.746-0.062c0.502,0,0.861,0.123,1.098,0.339
			c0.246,0.222,0.387,0.535,0.387,0.975c0,0.443-0.141,0.805-0.389,1.055c-0.258,0.254-0.678,0.393-1.205,0.393
			c-0.256,0-0.46-0.012-0.637-0.031V31.785z M12.146,34.186c0.088,0.014,0.22,0.016,0.355,0.016c0.753,0,1.156-0.418,1.156-1.154
			c0.004-0.639-0.36-1.043-1.1-1.043c-0.181,0-0.319,0.014-0.412,0.033V34.186z"/>
		<path fill="#1E1E1E" d="M14.832,31.743v2.718h-0.355v-2.718H14.832z"/>
		<path fill="#1E1E1E" d="M15.258,34.256l1.506-2.207v-0.012h-1.377v-0.294h1.834v0.214l-1.499,2.196v0.013h1.521v0.295h-1.984
			V34.256z"/>
		<path fill="#1E1E1E" d="M18.113,33.606l-0.282,0.854h-0.362l0.928-2.718h0.418l0.927,2.718h-0.376l-0.289-0.854H18.113z
			 M19.008,33.331l-0.271-0.78c-0.06-0.18-0.1-0.34-0.142-0.496h-0.008c-0.039,0.156-0.08,0.325-0.135,0.492l-0.268,0.784H19.008z"
			/>
		<path fill="#1E1E1E" d="M22.15,34.34c-0.156,0.06-0.471,0.148-0.837,0.148c-0.411,0-0.75-0.104-1.017-0.359
			c-0.233-0.224-0.377-0.587-0.377-1.01c0-0.812,0.561-1.404,1.469-1.404c0.315,0,0.564,0.07,0.682,0.127l-0.089,0.285
			c-0.146-0.068-0.327-0.117-0.599-0.117c-0.663,0-1.092,0.412-1.092,1.094c0,0.688,0.41,1.096,1.047,1.096
			c0.23,0,0.387-0.033,0.468-0.076v-0.807h-0.55v-0.283h0.895V34.34z"/>
		<path fill="#1E1E1E" d="M24.086,33.188h-1.051v0.979h1.176v0.295H22.68v-2.718h1.471v0.294h-1.115v0.859h1.051V33.188z"/>
		<path fill="#1E1E1E" d="M26.956,33.268c-0.021-0.38-0.044-0.84-0.044-1.172h-0.01c-0.096,0.312-0.203,0.654-0.342,1.031
			l-0.48,1.316h-0.264l-0.443-1.293c-0.128-0.388-0.234-0.734-0.312-1.055h-0.007c-0.009,0.336-0.027,0.787-0.053,1.201
			l-0.073,1.164h-0.334l0.189-2.718h0.447l0.464,1.315c0.113,0.333,0.202,0.631,0.275,0.914h0.008
			c0.07-0.274,0.168-0.573,0.287-0.914l0.484-1.315h0.449l0.168,2.718H27.02L26.956,33.268z"/>
		<path fill="#1E1E1E" d="M30.166,33.188h-1.053v0.979h1.177v0.295h-1.532v-2.718h1.471v0.294h-1.115v0.859h1.053V33.188z"/>
		<path fill="#1E1E1E" d="M33.035,33.268c-0.021-0.38-0.045-0.84-0.045-1.172h-0.009c-0.095,0.312-0.204,0.654-0.341,1.031
			l-0.481,1.316h-0.265l-0.443-1.293c-0.131-0.388-0.233-0.734-0.309-1.055h-0.01c-0.008,0.336-0.027,0.787-0.053,1.201
			l-0.072,1.164h-0.333l0.188-2.718h0.447l0.463,1.315c0.111,0.333,0.203,0.631,0.274,0.914h0.007
			c0.074-0.274,0.172-0.573,0.292-0.914l0.482-1.315h0.448l0.17,2.718H33.1L33.035,33.268z"/>
		<path fill="#1E1E1E" d="M34.842,31.779c0.178-0.033,0.436-0.056,0.674-0.056c0.375,0,0.619,0.073,0.785,0.221
			c0.135,0.122,0.214,0.308,0.214,0.521c0,0.354-0.227,0.594-0.508,0.689v0.014c0.204,0.07,0.33,0.264,0.394,0.548
			c0.092,0.376,0.154,0.641,0.209,0.745h-0.361c-0.045-0.083-0.104-0.311-0.176-0.65c-0.082-0.373-0.23-0.514-0.549-0.526h-0.33
			v1.177h-0.352V31.779z M35.193,33.017h0.357c0.377,0,0.613-0.204,0.613-0.515c0-0.351-0.256-0.504-0.624-0.504
			c-0.171,0-0.287,0.012-0.347,0.028V33.017z"/>
		<path fill="#1E1E1E" d="M38.412,33.188h-1.05v0.979h1.177v0.295h-1.531v-2.718h1.469v0.294h-1.114v0.859h1.05V33.188z"/>
		<path fill="#1E1E1E" d="M38.994,31.785c0.213-0.039,0.467-0.062,0.745-0.062c0.503,0,0.864,0.123,1.101,0.339
			c0.246,0.222,0.387,0.535,0.387,0.975c0,0.443-0.141,0.805-0.391,1.055c-0.259,0.254-0.678,0.393-1.205,0.393
			c-0.255,0-0.459-0.012-0.637-0.031V31.785z M39.346,34.186c0.088,0.014,0.215,0.016,0.355,0.016c0.75,0,1.153-0.418,1.153-1.154
			c0.005-0.639-0.357-1.043-1.099-1.043c-0.182,0-0.318,0.014-0.41,0.033V34.186z"/>
		<path fill="#1E1E1E" d="M43.082,33.188h-1.055v0.979h1.178v0.295h-1.529v-2.718h1.471v0.294h-1.119v0.859h1.055V33.188z"/>
	</g>
</g>
<path fill-rule="evenodd" clip-rule="evenodd" fill="#0069B3" d="M65.721,16.034l3.283,1.897l3.283,1.898v3.794v3.792l-3.283,1.9
	l-3.283,1.895l-3.283-1.895l-3.282-1.9v-3.792V19.83l3.282-1.898L65.721,16.034L65.721,16.034z M72.299,6.172l-2.627,1.516
	l-2.626,1.516v3.031v3.032l2.626,1.517l2.627,1.516l2.627-1.516l2.626-1.517v-3.032V9.203l-2.626-1.516L72.299,6.172L72.299,6.172z
	 M76.254,29.711l1.978,1.135l1.979,1.135v2.271v2.273l-1.979,1.135l-1.978,1.135l-1.977-1.135l-1.98-1.135v-2.273V31.98l1.98-1.135
	L76.254,29.711L76.254,29.711z M93.354,16.803l2.633,1.516l2.635,1.516v3.031v3.029l-2.635,1.518l-2.633,1.515l-2.636-1.515
	l-2.634-1.518v-3.029v-3.031l2.634-1.516L93.354,16.803L93.354,16.803z M87.947,0l-3.946,2.275l-3.945,2.278v4.552v4.551
	l3.945,2.277l3.946,2.276l3.947-2.276l3.945-2.277V9.105V4.554l-3.945-2.278L87.947,0L87.947,0z M88.082,27.414l-3.286,1.897
	l-3.288,1.899v3.799v3.797l3.288,1.899l3.286,1.899l3.287-1.899l3.286-1.899V35.01v-3.799l-3.286-1.899L88.082,27.414z"/>
<path fill="#1E1E1E" d="M103.182,8.621v7.527c0.004,1.426,0.217,2.597,0.641,3.508c0.426,0.915,1.035,1.592,1.836,2.028
	c0.801,0.438,1.772,0.655,2.91,0.651c1.178,0,2.186-0.221,3.027-0.668c0.836-0.447,1.479-1.124,1.926-2.035
	c0.443-0.908,0.67-2.055,0.673-3.443V8.621h-3.044v7.748c-0.003,1.198-0.217,2.086-0.64,2.664c-0.425,0.576-1.038,0.863-1.842,0.858
	c-0.778,0-1.376-0.292-1.8-0.882c-0.422-0.588-0.637-1.469-0.643-2.641V8.621H103.182L103.182,8.621z M118.714,22.115h3.044v-5.426
	h4.846v-2.482h-4.846v-3.084h5.185V8.621h-8.229V22.115L118.714,22.115z M141.975,14.406h-5.026v2.384h2.083v2.823
	c-0.125,0.053-0.318,0.094-0.574,0.125c-0.262,0.035-0.564,0.055-0.908,0.055c-0.628,0-1.201-0.1-1.721-0.293
	c-0.521-0.197-0.973-0.483-1.35-0.862c-0.38-0.377-0.674-0.837-0.881-1.384c-0.205-0.544-0.311-1.164-0.313-1.865
	c0.003-0.734,0.116-1.375,0.344-1.923c0.224-0.55,0.54-1.007,0.944-1.372c0.407-0.363,0.881-0.638,1.424-0.82
	c0.542-0.18,1.135-0.271,1.773-0.271c0.49,0,0.928,0.026,1.305,0.073c0.377,0.051,0.714,0.121,1.008,0.207
	c0.298,0.086,0.568,0.187,0.811,0.305l0.641-2.488c-0.219-0.096-0.514-0.189-0.879-0.285c-0.362-0.095-0.782-0.174-1.266-0.238
	c-0.484-0.059-1.016-0.092-1.6-0.096c-1.111,0-2.135,0.156-3.066,0.471c-0.935,0.313-1.748,0.77-2.439,1.374
	c-0.691,0.604-1.229,1.343-1.612,2.216c-0.384,0.878-0.58,1.879-0.591,3.007c0,0.661,0.074,1.292,0.225,1.89
	c0.146,0.598,0.359,1.151,0.644,1.661c0.28,0.507,0.626,0.961,1.034,1.354c0.619,0.592,1.379,1.041,2.286,1.346
	c0.905,0.303,1.973,0.457,3.2,0.457c0.602-0.004,1.186-0.047,1.752-0.127c0.567-0.08,1.089-0.178,1.562-0.295
	c0.477-0.115,0.875-0.229,1.191-0.34V14.406z"/>
<path fill-rule="evenodd" clip-rule="evenodd" fill="#1E1E1E" d="M103.156,26.693v1.705c0,0.972,0.447,1.402,1.219,1.402
	c0.798,0,1.274-0.449,1.274-1.393v-1.715h-0.69v1.756c0,0.545-0.199,0.798-0.562,0.798c-0.35,0-0.553-0.268-0.553-0.798v-1.756
	H103.156L103.156,26.693z M107.648,29.752V28.83c0-0.499-0.01-0.93-0.031-1.338h0.018c0.146,0.359,0.35,0.749,0.531,1.079
	l0.652,1.181h0.727v-3.059h-0.635v0.889c0,0.463,0.014,0.877,0.054,1.279h-0.009c-0.141-0.344-0.318-0.725-0.5-1.047l-0.635-1.121
	h-0.807v3.059H107.648L107.648,29.752z M110.912,26.693v3.059h0.69v-3.059H110.912L110.912,26.693z M114.496,29.752l1.029-3.059
	h-0.735l-0.391,1.306c-0.104,0.351-0.2,0.712-0.276,1.081h-0.013c-0.074-0.381-0.169-0.725-0.273-1.094l-0.372-1.293h-0.756
	l0.979,3.059H114.496L114.496,29.752z M118.436,27.896h-1.125v-0.634h1.193v-0.568h-1.882v3.059h1.945v-0.566h-1.257v-0.727h1.125
	V27.896L118.436,27.896z M119.805,29.752h0.686v-1.208h0.204c0.285,0.004,0.417,0.106,0.503,0.491
	c0.086,0.379,0.164,0.63,0.209,0.717h0.707c-0.059-0.119-0.15-0.521-0.244-0.871c-0.077-0.282-0.196-0.482-0.408-0.568v-0.012
	c0.262-0.097,0.54-0.363,0.54-0.748c0-0.279-0.101-0.492-0.286-0.637c-0.219-0.178-0.535-0.244-0.99-0.244
	c-0.371,0-0.697,0.025-0.92,0.066V29.752L119.805,29.752z M120.49,27.211c0.049-0.014,0.145-0.022,0.311-0.022
	c0.318,0,0.51,0.144,0.51,0.42c0,0.267-0.205,0.437-0.549,0.437h-0.271V27.211L120.49,27.211z M123.141,29.611
	c0.174,0.095,0.518,0.189,0.867,0.189c0.84,0,1.229-0.437,1.229-0.947c0-0.436-0.248-0.717-0.789-0.916
	c-0.398-0.155-0.566-0.242-0.566-0.438c0-0.152,0.146-0.293,0.445-0.293c0.295,0,0.517,0.085,0.635,0.145l0.153-0.555
	c-0.182-0.086-0.431-0.152-0.78-0.152c-0.717,0-1.156,0.395-1.156,0.915c0,0.45,0.335,0.731,0.844,0.913
	c0.368,0.126,0.512,0.238,0.512,0.427c0,0.204-0.168,0.335-0.484,0.335c-0.295,0-0.584-0.096-0.768-0.19L123.141,29.611
	L123.141,29.611z M126.479,26.693v3.059h0.689v-3.059H126.479L126.479,26.693z M128.532,29.738c0.168,0.022,0.427,0.045,0.785,0.045
	c0.599,0,1.093-0.127,1.416-0.395c0.29-0.25,0.503-0.652,0.503-1.24c0-0.543-0.201-0.924-0.518-1.16
	c-0.29-0.221-0.671-0.316-1.257-0.316c-0.344,0-0.676,0.021-0.93,0.066V29.738L128.532,29.738z M129.221,27.229
	c0.061-0.014,0.164-0.025,0.314-0.025c0.6,0,0.971,0.312,0.971,0.97c0,0.73-0.413,1.074-1.044,1.071c-0.081,0-0.181,0-0.241-0.016
	V27.229L129.221,27.229z M134.043,28.967l0.236,0.785h0.743l-0.954-3.059h-0.901l-0.935,3.059h0.717l0.213-0.785H134.043
	L134.043,28.967z M133.262,28.449l0.187-0.648c0.046-0.178,0.095-0.408,0.136-0.59h0.014c0.045,0.176,0.101,0.408,0.149,0.59
	l0.19,0.648H133.262L133.262,28.449z M136.196,29.738c0.167,0.022,0.427,0.045,0.784,0.045c0.599,0,1.094-0.127,1.416-0.395
	c0.289-0.25,0.504-0.652,0.504-1.24c0-0.543-0.2-0.924-0.518-1.16c-0.289-0.221-0.672-0.316-1.258-0.316
	c-0.345,0-0.676,0.021-0.929,0.066V29.738L136.196,29.738z M136.885,27.229c0.061-0.014,0.164-0.025,0.314-0.025
	c0.598,0,0.971,0.312,0.971,0.97c0,0.73-0.413,1.074-1.045,1.071c-0.081,0-0.18,0-0.24-0.016V27.229L136.885,27.229z
	 M141.938,27.896h-1.125v-0.634h1.191v-0.568h-1.883v3.059h1.947v-0.566h-1.256v-0.727h1.125V27.896z"/>
<path fill-rule="evenodd" clip-rule="evenodd" fill="#1E1E1E" d="M103.144,34.279h0.688v-1.229h1.1v-0.563h-1.1v-0.698h1.176v-0.568
	h-1.864V34.279L103.144,34.279z M107.221,32.424h-1.127v-0.635h1.195v-0.568h-1.883v3.059h1.945v-0.566h-1.258v-0.727h1.127V32.424
	L107.221,32.424z M107.824,34.266c0.168,0.024,0.426,0.045,0.783,0.045c0.6,0,1.098-0.123,1.416-0.394
	c0.293-0.247,0.505-0.653,0.505-1.238c0-0.545-0.202-0.924-0.519-1.161c-0.291-0.221-0.672-0.317-1.256-0.317
	c-0.346,0-0.676,0.021-0.93,0.067V34.266L107.824,34.266z M108.514,31.757c0.059-0.014,0.164-0.026,0.313-0.026
	c0.599,0,0.97,0.311,0.97,0.97c0,0.729-0.412,1.074-1.043,1.07c-0.082-0.001-0.182,0-0.24-0.013V31.757L108.514,31.757z
	 M112.8,32.424h-1.124v-0.635h1.191v-0.568h-1.881v3.059h1.946v-0.566h-1.257v-0.727h1.124V32.424L112.8,32.424z M113.404,34.279
	h0.686v-1.206h0.203c0.285,0,0.417,0.104,0.504,0.491c0.085,0.379,0.162,0.628,0.209,0.715h0.707
	c-0.059-0.118-0.15-0.52-0.245-0.869c-0.077-0.283-0.194-0.483-0.408-0.568V32.83c0.263-0.097,0.54-0.364,0.54-0.75
	c0-0.277-0.102-0.49-0.287-0.637c-0.219-0.174-0.533-0.243-0.988-0.243c-0.371,0-0.697,0.026-0.92,0.067V34.279L113.404,34.279z
	 M114.09,31.739c0.049-0.016,0.145-0.022,0.312-0.022c0.319,0,0.509,0.145,0.509,0.42c0,0.266-0.205,0.438-0.549,0.438h-0.271
	V31.739L114.09,31.739z M117.723,33.496l0.236,0.783h0.744l-0.953-3.059h-0.903l-0.934,3.059h0.716l0.213-0.783H117.723
	L117.723,33.496z M116.942,32.978l0.187-0.649c0.049-0.176,0.096-0.406,0.135-0.589h0.014c0.046,0.177,0.098,0.409,0.15,0.589
	l0.189,0.649H116.942L116.942,32.978z M119.07,34.279h1.906v-0.58h-1.217v-2.479h-0.689V34.279L119.07,34.279z M122.431,34.266
	c0.169,0.024,0.429,0.045,0.785,0.045c0.599,0,1.094-0.126,1.415-0.394c0.292-0.251,0.504-0.653,0.504-1.238
	c0-0.545-0.199-0.926-0.517-1.161c-0.29-0.224-0.672-0.317-1.257-0.317c-0.344,0-0.677,0.021-0.931,0.067V34.266L122.431,34.266z
	 M123.121,31.757c0.059-0.014,0.163-0.026,0.312-0.026c0.6,0,0.972,0.311,0.972,0.97c0,0.729-0.413,1.074-1.044,1.07
	c-0.081,0-0.182,0-0.24-0.013V31.757L123.121,31.757z M127.408,32.424h-1.125v-0.635h1.194v-0.568h-1.884v3.059h1.946v-0.566h-1.257
	v-0.727h1.125V32.424L127.408,32.424z M132.075,32.533h-1.14v0.54h0.471v0.64c-0.054,0.021-0.179,0.039-0.334,0.039
	c-0.568,0-0.967-0.364-0.967-0.998c0-0.665,0.44-0.992,1.016-0.992c0.336,0,0.541,0.055,0.709,0.132l0.145-0.562
	c-0.149-0.064-0.453-0.142-0.85-0.142c-1.002,0-1.74,0.581-1.745,1.601c0,0.447,0.153,0.845,0.431,1.111
	c0.282,0.27,0.686,0.408,1.243,0.408c0.403,0,0.808-0.1,1.021-0.172V32.533L132.075,32.533z M133.916,34.33
	c0.895,0,1.498-0.605,1.498-1.611c0-0.844-0.514-1.547-1.453-1.547c-0.896,0-1.487,0.684-1.487,1.602
	c0,0.871,0.536,1.557,1.438,1.557H133.916L133.916,34.33z M133.938,33.781c-0.462,0-0.739-0.449-0.739-1.027
	c0-0.57,0.268-1.033,0.744-1.033c0.476,0,0.734,0.471,0.734,1.021c0,0.6-0.268,1.04-0.734,1.04H133.938L133.938,33.781z
	 M135.871,31.221v3.059h0.689v-3.059H135.871L135.871,31.221z M138.748,33.496l0.236,0.783h0.743l-0.952-3.059h-0.904l-0.934,3.059
	h0.717l0.213-0.783H138.748L138.748,33.496z M137.968,32.978l0.186-0.649c0.045-0.177,0.096-0.406,0.137-0.589h0.013
	c0.045,0.177,0.1,0.407,0.15,0.589l0.189,0.649H137.968L137.968,32.978z M138.436,30.486l-0.396,0.571h0.546l0.567-0.571H138.436
	L138.436,30.486z M140.019,34.139c0.173,0.095,0.517,0.191,0.866,0.191c0.84,0,1.229-0.436,1.229-0.947
	c0-0.438-0.25-0.719-0.79-0.917c-0.399-0.154-0.566-0.241-0.566-0.437c0-0.154,0.146-0.295,0.445-0.295
	c0.295,0,0.516,0.085,0.634,0.146l0.155-0.555c-0.183-0.087-0.433-0.153-0.781-0.153c-0.717,0-1.156,0.395-1.156,0.915
	c0,0.45,0.336,0.731,0.844,0.913c0.367,0.127,0.513,0.24,0.513,0.428c0,0.203-0.169,0.336-0.486,0.336
	c-0.295,0-0.585-0.098-0.766-0.191L140.019,34.139z"/>
</svg>
