<?xml version="1.0" encoding="utf-8"?>
<!-- Generator: Adobe Illustrator 16.0.0, SVG Export Plug-In . SVG Version: 6.00 Build 0)  -->
<!DOCTYPE svg PUBLIC "-//W3C//DTD SVG 1.1//EN" "http://www.w3.org/Graphics/SVG/1.1/DTD/svg11.dtd">
<svg version="1.1" id="Layer_1" xmlns="http://www.w3.org/2000/svg" xmlns:xlink="http://www.w3.org/1999/xlink" x="0px" y="0px"
	  viewBox="0 0 434.911 156.941" enable-background="new 0 0 434.911 156.941"
	 xml:space="preserve">
<path d="M271.877,84.355v62.695l5.794,5.795h30.244l5.794-5.795V84.355h4.098v64.393c-3.201,3.2-4.994,4.994-8.194,8.193h-33.638
	c-3.201-3.199-4.994-4.993-8.193-8.193V84.355H271.877z"/>
<polygon points="109.757,84.355 106.889,84.355 70.502,156.941 75.264,156.941 108.331,91.336 141.014,156.941 145.762,156.941 "/>
<polygon points="56.892,156.941 0,156.941 0,84.356 4.096,84.356 4.096,152.845 56.892,152.845 "/>
<polygon points="220.19,156.941 215.427,156.941 251.578,84.356 256.364,84.356 "/>
<path d="M203.043,112.455V92.549c-3.199-3.199-4.993-4.993-8.193-8.192h-41.832v36.292v36.293h41.832
	c3.2-3.2,4.994-4.994,8.193-8.193v-19.906c-3.199-3.199-4.993-4.993-8.193-8.193C198.05,117.449,199.844,115.655,203.043,112.455
	 M198.946,130.539v16.512l-5.794,5.793h-36.037v-30.086h34.05L198.946,130.539z M191.043,118.662h-33.928v-30.21h36.037l5.794,5.794
	v16.512L191.043,118.662z"/>
<polygon points="68.729,0 35.961,32.882 2.965,0 0,0 0,72.585 3.924,72.585 3.924,7.228 35.926,39.114 67.681,7.253 67.681,72.585 
	71.604,72.585 71.604,0 "/>
<polygon points="296.747,0 293.879,0 257.493,72.585 262.254,72.585 295.321,6.98 328.004,72.585 332.752,72.585 "/>
<path d="M194.85,72.585h-41.832V0h41.832c3.2,3.199,4.994,4.993,8.193,8.193v56.199C199.844,67.591,198.05,69.385,194.85,72.585
	 M193.152,68.488l5.794-5.794V9.891l-5.794-5.794h-36.037v64.392H193.152z"/>
<polygon points="244.241,4.097 244.241,0 218.737,0 218.737,4.097 229.44,4.097 229.44,68.489 218.737,68.489 218.737,72.585 
	244.241,72.585 244.241,68.489 233.538,68.489 233.538,4.097 "/>
<path d="M430.814,118.688h-15.502v4.097h15.502v24.267l-5.794,5.794h-30.244l-5.794-5.794V94.246l5.794-5.793h30.244l6.964,6.964
	l2.927-2.867c-3.199-3.2-4.993-4.994-8.192-8.194h-33.64c-3.199,3.2-4.994,4.994-8.192,8.194v56.198
	c3.198,3.199,4.993,4.994,8.192,8.193h33.64c3.199-3.199,4.993-4.994,8.192-8.193v-30.061h-3.108H430.814z"/>
<polygon points="328.596,84.355 328.596,156.941 332.693,156.941 332.693,152.846 332.693,122.784 365.847,122.784 365.847,118.688 
	332.693,118.688 332.693,88.453 372.562,88.453 376.659,88.453 376.659,84.355 "/>
<polygon points="126.375,4.097 133.228,4.097 137.324,4.097 137.324,0 89.261,0 89.261,72.586 137.324,72.586 137.324,68.489 
	133.228,68.489 126.375,68.489 93.357,68.489 93.357,38.259 125.554,38.259 125.554,34.331 93.357,34.331 93.357,4.097 "/>
</svg>
